<?xml version="1.0" standalone="no"?>
<!DOCTYPE svg PUBLIC "-//W3C//DTD SVG 20010904//EN"
 "http://www.w3.org/TR/2001/REC-SVG-20010904/DTD/svg10.dtd">
<svg version="1.0" xmlns="http://www.w3.org/2000/svg"
 width="512.000000pt" height="512.000000pt" viewBox="0 0 512.000000 512.000000"
 preserveAspectRatio="xMidYMid meet">

<g transform="translate(0.000000,512.000000) scale(0.100000,-0.100000)"
fill="#FFFFFF" stroke="none">
<path d="M4508 4896 c-74 -17 -172 -65 -225 -111 -24 -20 -610 -729 -1304
-1576 -694 -847 -1265 -1537 -1269 -1532 -648 735 -865 974 -913 1006 -216
144 -494 119 -672 -58 -87 -88 -133 -212 -121 -329 13 -133 1 -118 906 -1138
457 -516 835 -938 839 -938 9 0 3221 3918 3284 4005 99 138 111 290 36 437
-47 92 -171 188 -288 224 -67 21 -206 26 -273 10z"/>
</g>
</svg>
