<svg width="22" height="21" viewBox="0 0 22 21" fill="none" xmlns="http://www.w3.org/2000/svg">
<path d="M18.5 7.25003H14V3.50003C14.0756 2.77997 13.862 2.05939 13.4063 1.49678C12.9506 0.934178 12.2901 0.575638 11.57 0.50003C11.3807 0.477529 11.1893 0.477529 11 0.50003H9.8225C9.5718 0.506899 9.33048 0.596788 9.13637 0.755599C8.94227 0.914409 8.80638 1.13316 8.75 1.37753V1.46753L8 6.22253L5.345 10.25H0.5V20.75H14.75C20.33 20.75 21.5 17.4875 21.5 14.75V10.25C21.5756 9.52997 21.362 8.80939 20.9063 8.24678C20.4506 7.68418 19.7901 7.32564 19.07 7.25003C18.8807 7.22753 18.6893 7.22753 18.5 7.25003ZM5 19.25H2V11.75H5V19.25ZM20 14.75C20 17.8175 18.335 19.25 14.75 19.25H6.5V11.225L9.5 6.77753L10.0475 2.75003L10.1525 2.00003H11C12.08 2.00003 12.5 2.42003 12.5 3.50003V8.75003H18.5C19.58 8.75003 20 9.17003 20 10.25V14.75Z" fill="white"/>
</svg>
