<svg width="22" height="23" viewBox="0 0 22 23" fill="none" xmlns="http://www.w3.org/2000/svg">
<path d="M3.75 12.0002V12V8C3.75 6.07718 4.51384 4.23312 5.87348 2.87348C7.23311 1.51384 9.07718 0.75 11 0.75C12.9228 0.75 14.7669 1.51384 16.1265 2.87348C17.4862 4.23311 18.25 6.07718 18.25 8V12V12.0002C18.2501 12.4642 18.4345 12.9092 18.7627 13.2373C18.7627 13.2374 18.7627 13.2374 18.7628 13.2374L21.1768 15.6515C21.2237 15.6984 21.25 15.762 21.25 15.8283V16C21.25 16.1381 21.1381 16.25 21 16.25H1C0.861929 16.25 0.75 16.1381 0.75 16V15.8283C0.75 15.762 0.776338 15.6984 0.82322 15.6515L3.23725 13.2374C3.56546 12.9093 3.7499 12.4643 3.75 12.0002ZM13.25 20C13.25 20.5967 13.0129 21.169 12.591 21.591C12.169 22.0129 11.5967 22.25 11 22.25C10.4033 22.25 9.83097 22.0129 9.40901 21.591C8.98705 21.169 8.75 20.5967 8.75 20V19.75H13.25V20Z" stroke="#0D253C" stroke-width="1.5"/>
</svg>
