<svg width="10" height="10" viewBox="0 0 10 10" fill="none" xmlns="http://www.w3.org/2000/svg">
<path d="M9.71405 8.97735L5.73657 4.99987L9.71405 1.02239C9.91745 0.818989 9.91745 0.489227 9.71405 0.285823C9.51064 0.0824197 9.18088 0.0824196 8.97748 0.285823L5 4.2633L1.02252 0.285823C0.819121 0.0824196 0.489358 0.0824197 0.285955 0.285823C0.082551 0.489227 0.082551 0.818989 0.285955 1.02239L4.26343 4.99987L0.285954 8.97735C0.082551 9.18075 0.082551 9.51051 0.285955 9.71392C0.489358 9.91732 0.819121 9.91732 1.02252 9.71392L5 5.73644L8.97748 9.71392C9.18088 9.91732 9.51064 9.91732 9.71405 9.71392C9.91745 9.51051 9.91745 9.18075 9.71405 8.97735Z" fill="#376AED"/>
</svg>
